<svg xmlns="http://www.w3.org/2000/svg" viewBox="-29 0 334 334" width="32" height="32">
  <path d="M 71.250 41.240 L 0 82.372 0 166.953 L 0 251.535 64.750 291.825 L 129.500 332.115 129.777 316.817 C 129.930 308.403, 129.705 301.386, 129.277 301.224 C 128.850 301.062, 105.100 286.842, 76.500 269.625 L 24.500 238.321 24.243 167.860 L 23.987 97.399 81.566 64.605 C 113.235 46.569, 139.269 31.967, 139.419 32.156 C 139.906 32.769, 79.519 184.814, 78.931 184.454 C 78.618 184.262, 72.365 168.782, 65.035 150.053 L 51.709 116 39.246 116 C 26.810 116, 26.784 116.005, 27.386 118.250 C 27.717 119.487, 36.714 142.775, 47.378 170 L 66.768 219.500 78.953 219.500 L 91.138 219.500 131.569 119.546 C 153.806 64.572, 172 19.069, 172 18.428 C 172 17.494, 144.007 -0.139, 142.829 0.054 C 142.648 0.083, 110.438 18.617, 71.250 41.240 M 175.038 27.717 C 173.266 31.938, 170.971 37.537, 169.937 40.159 L 168.058 44.927 210.029 73.126 L 252 101.326 252 168.519 L 252 235.712 207.582 262.356 C 183.152 277.010, 162.452 289.273, 161.582 289.607 C 160.150 290.157, 160 284.225, 160 226.907 C 160 188.756, 160.362 163.977, 160.912 164.550 C 161.413 165.072, 166.541 176.075, 172.307 189 L 182.791 212.500 191.756 212.786 L 200.721 213.071 211.611 186.916 L 222.500 160.761 222.765 190.380 L 223.030 220 234.015 220 L 245 220 245 168 L 245 116 233.202 116 L 221.404 116 206.530 145.075 L 191.657 174.150 179.401 145.325 L 167.145 116.500 152.073 116.224 L 137 115.948 137 225.024 C 137 316.820, 137.216 333.973, 138.363 333.300 C 139.112 332.860, 170.387 314.298, 207.863 292.051 L 276 251.603 276 168.307 L 276 85.010 228.250 53.193 C 201.988 35.694, 179.996 21.076, 179.380 20.709 C 178.675 20.290, 177.065 22.888, 175.038 27.717" stroke="none" fill="#11110f" fill-rule="evenodd"/>
</svg>
