<svg xmlns="http://www.w3.org/2000/svg" width="1024" height="334" viewBox="0 0 1024 334" version="1.1">
	<path d="M 71.250 41.240 L 0 82.372 0 166.953 L 0 251.535 64.750 291.825 L 129.500 332.115 129.777 316.817 C 129.930 308.403, 129.705 301.386, 129.277 301.224 C 128.850 301.062, 105.100 286.842, 76.500 269.625 L 24.500 238.321 24.243 167.860 L 23.987 97.399 81.566 64.605 C 113.235 46.569, 139.269 31.967, 139.419 32.156 C 139.906 32.769, 79.519 184.814, 78.931 184.454 C 78.618 184.262, 72.365 168.782, 65.035 150.053 L 51.709 116 39.246 116 C 26.810 116, 26.784 116.005, 27.386 118.250 C 27.717 119.487, 36.714 142.775, 47.378 170 L 66.768 219.500 78.953 219.500 L 91.138 219.500 131.569 119.546 C 153.806 64.572, 172 19.069, 172 18.428 C 172 17.494, 144.007 -0.139, 142.829 0.054 C 142.648 0.083, 110.438 18.617, 71.250 41.240 M 175.038 27.717 C 173.266 31.938, 170.971 37.537, 169.937 40.159 L 168.058 44.927 210.029 73.126 L 252 101.326 252 168.519 L 252 235.712 207.582 262.356 C 183.152 277.010, 162.452 289.273, 161.582 289.607 C 160.150 290.157, 160 284.225, 160 226.907 C 160 188.756, 160.362 163.977, 160.912 164.550 C 161.413 165.072, 166.541 176.075, 172.307 189 L 182.791 212.500 191.756 212.786 L 200.721 213.071 211.611 186.916 L 222.500 160.761 222.765 190.380 L 223.030 220 234.015 220 L 245 220 245 168 L 245 116 233.202 116 L 221.404 116 206.530 145.075 L 191.657 174.150 179.401 145.325 L 167.145 116.500 152.073 116.224 L 137 115.948 137 225.024 C 137 316.820, 137.216 333.973, 138.363 333.300 C 139.112 332.860, 170.387 314.298, 207.863 292.051 L 276 251.603 276 168.307 L 276 85.010 228.250 53.193 C 201.988 35.694, 179.996 21.076, 179.380 20.709 C 178.675 20.290, 177.065 22.888, 175.038 27.717 M 650 148 L 650 220 668.500 220 L 687 220 687 212.419 L 687 204.839 692.060 210.375 C 709.235 229.168, 740.878 226.007, 754.939 204.095 C 764.819 188.698, 767.535 160.853, 760.976 142.191 C 755.207 125.778, 742.938 116.042, 724.886 113.554 C 714.939 112.183, 699.421 116.730, 693.865 122.644 C 692.648 123.940, 691.280 125, 690.826 125 C 690.372 125, 690 113.975, 690 100.500 L 690 76 670 76 L 650 76 650 148 M 782 89.500 L 782 103 802 103 L 822 103 822 89.500 L 822 76 802 76 L 782 76 782 89.500 M 846 148 L 846 220 866 220 L 886 220 886 148 L 886 76 866 76 L 846 76 846 148 M 383 114.324 C 375.497 116.083, 370.292 118.966, 363.632 125.053 L 358 130.201 358 123.100 L 358 116 339.500 116 L 321 116 321 168 L 321 220 340.960 220 L 360.920 220 361.210 188.250 C 361.482 158.490, 361.629 156.255, 363.550 152.592 C 367.324 145.399, 377.662 142.586, 383.486 147.168 C 388.747 151.306, 389 153.177, 389 187.968 L 389 220 408.936 220 L 428.871 220 429.186 188.750 C 429.476 159.856, 429.651 157.199, 431.500 153.513 C 437.897 140.761, 454.808 142.778, 457.071 156.563 C 457.516 159.279, 457.908 174.662, 457.940 190.750 L 458 220 478 220 L 498 220 498 186.724 C 498 168.422, 497.526 149.669, 496.947 145.050 C 494.513 125.636, 484.568 115.505, 465.995 113.516 C 452.817 112.105, 441.681 115.869, 431.498 125.176 L 425.717 130.459 424.155 127.980 C 420.994 122.963, 414.176 117.248, 409.375 115.590 C 402.846 113.336, 389.872 112.713, 383 114.324 M 560.226 114.078 C 538.658 117.406, 521.390 132.092, 515.784 151.877 C 513.135 161.226, 513.197 176.343, 515.920 185.072 C 524.426 212.340, 553.622 227.337, 587 221.584 C 615.618 216.651, 633 196.538, 633 168.356 C 633 162.878, 632.323 156.162, 631.416 152.644 C 626.540 133.733, 612.557 120.246, 592.912 115.505 C 584.765 113.539, 568.361 112.823, 560.226 114.078 M 947.500 114.428 C 933.968 117.109, 928.377 119.845, 919.537 128.114 C 911.653 135.490, 907.617 142.269, 904.985 152.557 C 898.273 178.803, 909.262 206.435, 930.381 216.415 C 939.992 220.957, 948.845 222.473, 965 222.340 C 992.218 222.118, 1005.908 216.123, 1017.750 199.241 L 1021.933 193.278 1016.216 192.701 C 988.316 189.885, 981.788 189.628, 980.849 191.305 C 980.339 192.216, 977.802 194.205, 975.211 195.726 C 971.344 197.996, 969.307 198.492, 963.840 198.496 C 958.047 198.499, 956.626 198.109, 952.929 195.500 C 948.321 192.248, 945.244 187.278, 944.322 181.599 L 943.738 178 984.019 178 L 1024.300 178 1023.728 167.158 C 1022.231 138.794, 1008.741 121.145, 984.346 115.635 C 974.085 113.318, 956.080 112.728, 947.500 114.428 M 782 168 L 782 220 802 220 L 822 220 822 168 L 822 116 802 116 L 782 116 782 168 M 957.500 138.326 C 949.978 141.270, 945.725 146.611, 944.424 154.750 L 943.744 159 963.372 159 C 985.626 159, 984.271 159.642, 981.524 150.391 C 978.472 140.116, 967.284 134.497, 957.500 138.326 M 565.168 143.146 C 556.889 147.244, 553.421 156.163, 554.216 171.308 C 554.776 181.961, 556.974 187.353, 562.466 191.542 C 567.262 195.200, 572.085 196.124, 578.159 194.549 C 588.637 191.831, 592.527 184.470, 592.451 167.500 C 592.410 158.303, 592.056 155.844, 590.292 152.500 C 584.709 141.912, 574.980 138.289, 565.168 143.146 M 701.459 144.880 C 692.931 148.753, 689.394 156.974, 690.208 171.030 C 690.539 176.755, 691.329 180.165, 693.140 183.684 C 700.214 197.434, 718.774 195.278, 722.956 180.219 C 724.288 175.422, 724.288 160.578, 722.956 155.781 C 721.026 148.832, 714.045 142.962, 707.782 143.022 C 706.527 143.034, 703.681 143.870, 701.459 144.880" stroke="none" fill="#ffffff" fill-rule="evenodd"/>
</svg>